<svg width="200" height="200" viewBox="0 0 200 200" fill="none" xmlns="http://www.w3.org/2000/svg">
    <path d="M65.0001 142.5L71.6667 135.833C80.0001 138.333 90.0001 140 100 140C131.667 140 155.833 126.667 173.333 98.3334C164.167 84.1668 153.333 73.3334 140.833 66.6668L146.667 60.8334C160.833 69.1667 172.5 81.6668 182.5 98.3334C163.333 131.667 135 148.333 99.1667 148.333C87.5001 149.167 75.8334 146.667 65.0001 142.5ZM42.5001 130C32.5001 122.5 24.1667 111.667 16.6667 99.1668C35.8334 65.8334 64.1667 49.1667 100 49.1667C107.5 49.1667 115 50.0001 121.667 51.6667L115 58.3334C110 57.5001 105.833 57.5001 100 57.5001C68.3334 57.5001 44.1667 70.8334 26.6667 99.1668C33.3334 109.167 40.8334 117.5 49.1667 124.167L42.5001 130ZM87.5001 120.833L93.3334 115C95.0001 115.833 97.5001 115.833 99.1667 115.833C108.333 115.833 115.833 108.333 115.833 99.1668C115.833 96.6668 115.833 95.0001 115 93.3334L120.833 87.5001C123.333 90.8334 124.167 95.0001 124.167 100C124.167 114.167 113.333 125 99.1667 125C95.8334 124.167 91.6667 122.5 87.5001 120.833ZM75.0001 97.5001C75.8334 84.1668 85.8334 74.1668 99.1667 73.3334C99.1667 74.1668 75.0001 97.5001 75.0001 97.5001ZM143.333 41.6667L149.167 47.5001L49.1667 147.5L42.5001 141.667L143.333 41.6667Z" fill="black"/>
</svg>
