<svg  viewBox="0 0 29 29" fill="none" xmlns="http://www.w3.org/2000/svg">
<path d="M3.14365 27.6716C2.54326 27.6716 2.05615 27.1845 2.05615 26.5841C2.05615 24.9698 2.37334 23.4037 2.99639 21.9282C3.59961 20.5037 4.46055 19.2236 5.55938 18.1248C6.6582 17.026 7.93545 16.165 9.36279 15.5618C10.8383 14.9388 12.4044 14.6216 14.0187 14.6216C16.256 14.6216 18.4366 15.2418 20.3284 16.4199C20.8382 16.7371 20.9939 17.4083 20.6768 17.9181C20.3596 18.4278 19.6884 18.5836 19.1786 18.2664C17.6352 17.3035 15.8481 16.7966 14.0187 16.7966C11.4047 16.7966 8.94649 17.8161 7.09717 19.6626C5.24785 21.5091 4.23115 23.9701 4.23115 26.5841C4.23115 27.1845 3.74404 27.6716 3.14365 27.6716Z" fill="black"/>
<path d="M14.0186 16.3125C12.0814 16.3125 10.2604 15.5592 8.89258 14.1885C7.52471 12.8206 6.76855 10.9996 6.76855 9.0625C6.76855 7.12539 7.52188 5.30439 8.89258 3.93652C10.2604 2.56865 12.0814 1.8125 14.0186 1.8125C15.9557 1.8125 17.7767 2.56582 19.1445 3.93652C20.5124 5.30439 21.2686 7.12539 21.2686 9.0625C21.2686 10.9996 20.5152 12.8206 19.1445 14.1885C17.7738 15.5563 15.9557 16.3125 14.0186 16.3125ZM14.0186 3.9875C12.662 3.9875 11.3876 4.51426 10.4304 5.47432C9.47314 6.43438 8.94355 7.70596 8.94355 9.0625C8.94355 10.419 9.47031 11.6935 10.4304 12.6507C11.3876 13.6079 12.662 14.1375 14.0186 14.1375C15.3751 14.1375 16.6495 13.6107 17.6067 12.6507C18.564 11.6935 19.0936 10.419 19.0936 9.0625C19.0936 7.70596 18.5668 6.43154 17.6067 5.47432C16.6495 4.51426 15.3751 3.9875 14.0186 3.9875ZM22.4778 27.6746C21.8774 27.6746 21.3903 27.1875 21.3903 26.5871V24.0439H18.8528C18.2524 24.0439 17.7653 23.5568 17.7653 22.9564C17.7653 22.3561 18.2524 21.8689 18.8528 21.8689H21.3903V19.3314C21.3903 18.7311 21.8774 18.2439 22.4778 18.2439C23.0782 18.2439 23.5653 18.7311 23.5653 19.3314V21.8689H26.1028C26.7032 21.8689 27.1903 22.3561 27.1903 22.9564C27.1903 23.5568 26.7032 24.0439 26.1028 24.0439H23.5653V26.5871C23.5653 27.1903 23.0782 27.6746 22.4778 27.6746Z" fill="black"/>
</svg>
