<svg width="77" height="77" viewBox="0 0 77 77" fill="none" xmlns="http://www.w3.org/2000/svg">
    <path d="M67.0305 12.8238C66.0524 12.7126 58.4432 11.8726 51.861 11.8726C46.1576 11.8726 42.334 13.0648 40.9233 13.7916C40.5038 13.9833 39.4175 14.5224 38.4429 15.3649C37.4685 14.5223 36.3823 13.9836 35.9626 13.7916C34.552 13.0648 30.7283 11.8726 25.0247 11.8726C18.4426 11.8726 10.8332 12.7127 9.8554 12.8238C7.10588 12.8851 4.8877 15.1408 4.8877 17.9051V59.0527C4.8877 61.8276 7.12273 64.0899 9.88713 64.1344C9.90924 64.1352 9.93187 64.1358 9.95428 64.1358C10.0386 64.1358 10.1255 64.1304 10.2142 64.1189C10.9483 64.0252 14.8287 63.5426 19.1433 63.2429C26.7379 62.715 29.6341 63.1646 30.6843 63.4795C30.6886 63.4808 30.6929 63.482 30.6974 63.4831C30.7164 63.4886 30.7356 63.494 30.7549 63.4989C30.7677 63.502 30.7806 63.5053 30.7933 63.5083C30.808 63.5117 30.8229 63.5149 30.8377 63.5179C30.8553 63.5216 30.8731 63.525 30.8908 63.528L30.9069 63.5314C31.4034 63.614 32.1452 63.8585 32.9306 64.1176C34.5195 64.6414 36.497 65.2931 38.443 65.2931C40.082 65.2931 41.8917 64.7745 43.6423 64.2728C44.8722 63.9201 46.1442 63.5558 46.8397 63.5558C47.0666 63.5558 47.2833 63.5138 47.4834 63.4374C56.2463 62.2057 66.479 64.0845 66.5822 64.1039L66.7477 64.1347H66.9158C69.718 64.1347 71.9982 61.8547 71.9982 59.0523V17.9051C71.9979 15.1408 69.78 12.8849 67.0305 12.8238ZM32.3514 61.0976C27.1145 59.605 12.1061 61.2487 9.00268 61.6409C8.21802 61.5925 7.59458 60.9389 7.59458 61.2944V17.8568C7.59458 15.8766 9.30512 15.2028 10.133 15.2028H10.2405L10.3472 15.1906C10.43 15.1809 18.7225 14.228 25.583 14.228C30.6888 14.228 34.0513 15.2508 35.1269 15.7959L35.1616 15.8155L35.2318 15.8468C36.2441 16.306 37.3504 17.1404 37.4961 17.5503V62.3121C37.4961 62.4083 37.5033 62.5029 37.5174 62.5952C36.6233 62.3932 35.7082 62.0923 34.859 61.8125C33.9615 61.5166 33.1122 61.238 32.3514 61.0976ZM69.1177 60.2001C69.1177 60.9828 68.5156 61.6276 67.7505 61.6957C66.1195 61.406 55.8375 59.704 46.735 61.0835C46.6637 61.0943 46.5942 61.1092 46.5266 61.1277C45.3946 61.2173 44.0849 61.5926 42.7085 61.9868C41.9033 62.2175 41.04 62.4646 40.233 62.6422C40.2463 62.5522 40.253 62.4613 40.253 62.3703V17.6081C40.3988 17.1981 41.5053 16.3637 42.5136 15.9064L42.558 15.8889L42.6209 15.8541C43.6952 15.3091 47.0586 14.2857 52.1664 14.2857C59.0268 14.2857 67.3194 15.2387 67.4022 15.2483L67.5089 15.2606H67.6165C68.4444 15.2606 69.1178 15.9343 69.1178 16.7622V60.2002L69.1177 60.2001Z" fill="black"/>
    <path d="M29.852 44.4162C29.725 44.3591 26.7094 43.022 23.9429 43.022C19.8624 43.022 18.3145 43.4433 16.8175 43.8511C16.5862 43.914 16.3678 43.9734 16.1373 44.032C15.5236 44.1886 15.1529 44.8128 15.3092 45.4264C15.4656 46.0402 16.0897 46.4111 16.7035 46.2546C16.9522 46.1912 17.1898 46.1264 17.42 46.0639C18.8338 45.6791 20.1692 45.3155 23.9429 45.3155C26.2124 45.3155 28.888 46.4975 28.9141 46.5092C29.0613 46.5754 29.221 46.6096 29.3825 46.6097C29.8205 46.6097 30.2389 46.3574 30.4294 45.9317C30.6885 45.3535 30.4299 44.6752 29.852 44.4162ZM29.852 29.2448C29.725 29.1879 26.7094 27.8506 23.9429 27.8506C19.8624 27.8506 18.3145 28.2721 16.8175 28.6796C16.5862 28.7428 16.3678 28.8021 16.1373 28.8607C15.5236 29.0172 15.1529 29.6414 15.3092 30.255C15.4656 30.8687 16.0897 31.2397 16.7035 31.0832C16.9522 31.0198 17.1898 30.955 17.42 30.8926C18.8338 30.5077 20.1692 30.144 23.9429 30.144C26.2124 30.144 28.888 31.326 28.9141 31.3377C29.0614 31.4038 29.221 31.438 29.3825 31.4382C29.8205 31.4382 30.2389 31.1856 30.4294 30.76C30.6885 30.1822 30.4299 29.5035 29.852 29.2448ZM61.1228 44.4162C60.9957 44.3591 57.9803 43.022 55.2138 43.022C51.1332 43.022 49.5853 43.4433 48.0884 43.8511C47.857 43.914 47.6387 43.9734 47.4082 44.032C46.7945 44.1886 46.4239 44.8128 46.5802 45.4264C46.7366 46.0402 47.3607 46.4111 47.9744 46.2546C48.2232 46.1912 48.4608 46.1264 48.6909 46.0639C50.1046 45.6791 51.4402 45.3155 55.2138 45.3155C57.4834 45.3155 60.1591 46.4975 60.185 46.5092C60.3323 46.5754 60.4919 46.6096 60.6534 46.6097C61.0914 46.6097 61.5098 46.3574 61.7004 45.9317C61.9592 45.3535 61.7007 44.6752 61.1228 44.4162ZM61.1228 29.2448C60.9957 29.1879 57.9803 27.8506 55.2138 27.8506C51.1332 27.8506 49.5853 28.2721 48.0884 28.6796C47.857 28.7428 47.6387 28.8021 47.4082 28.8607C46.7945 29.0172 46.4239 29.6414 46.5802 30.255C46.7366 30.8687 47.3607 31.2397 47.9744 31.0832C48.2232 31.0198 48.4608 30.955 48.6909 30.8926C50.1046 30.5077 51.4402 30.144 55.2138 30.144C57.4834 30.144 60.1591 31.326 60.185 31.3377C60.3323 31.4038 60.4919 31.438 60.6534 31.4382C61.0914 31.4382 61.5098 31.1856 61.7004 30.76C61.9592 30.1822 61.7007 29.5035 61.1228 29.2448Z" fill="black"/>
</svg>



