<svg width="66" height="66" viewBox="0 0 66 66" fill="none" xmlns="http://www.w3.org/2000/svg">
    <g clip-path="url(#clip0_226_504)">
        <path d="M32.9999 44.2283C31.0438 44.2283 29.1068 43.843 27.2997 43.0944C25.4925 42.3458 23.8504 41.2487 22.4672 39.8655C21.0841 38.4823 19.9869 36.8403 19.2383 35.0331C18.4898 33.2259 18.1045 31.289 18.1045 29.3329C18.1045 27.3768 18.4898 25.4399 19.2383 23.6327C19.9869 21.8255 21.0841 20.1834 22.4672 18.8003C23.8504 17.4171 25.4925 16.3199 27.2997 15.5713C29.1068 14.8228 31.0438 14.4375 32.9999 14.4375C36.9504 14.4375 40.7391 16.0068 43.5325 18.8003C46.3259 21.5937 47.8952 25.3824 47.8952 29.3329C47.8952 33.2834 46.3259 37.0721 43.5325 39.8655C40.7391 42.6589 36.9504 44.2283 32.9999 44.2283ZM32.9999 40.1033C34.4143 40.1033 35.8148 39.8247 37.1215 39.2834C38.4282 38.7421 39.6156 37.9488 40.6157 36.9487C41.6158 35.9486 42.4091 34.7612 42.9504 33.4545C43.4917 32.1478 43.7702 30.7473 43.7702 29.3329C43.7702 27.9185 43.4917 26.518 42.9504 25.2112C42.4091 23.9045 41.6158 22.7172 40.6157 21.7171C39.6156 20.7169 38.4282 19.9236 37.1215 19.3823C35.8148 18.8411 34.4143 18.5625 32.9999 18.5625C30.1434 18.5625 27.4039 19.6972 25.3841 21.7171C23.3642 23.7369 22.2295 26.4764 22.2295 29.3329C22.2295 32.1894 23.3642 34.9288 25.3841 36.9487C27.4039 38.9685 30.1434 40.1033 32.9999 40.1033Z" fill="black"/>
        <path d="M56.3311 54.7511L52.6186 56.5455C50.8391 52.8542 48.054 49.7401 44.5835 47.5612C41.113 45.3823 37.098 44.227 33.0001 44.2283C28.964 44.2266 25.0069 45.3472 21.5709 47.4647C18.1348 49.5823 15.3552 52.6135 13.5425 56.2196L9.85889 54.3634C12.0153 50.0751 15.3213 46.4706 19.4078 43.9525C23.4942 41.4343 28.2001 40.1017 33.0001 40.1033C37.8729 40.1015 42.6473 41.4747 46.7745 44.0652C50.9017 46.6556 54.2142 50.3581 56.3311 54.747V54.7511Z" fill="black"/>
        <path d="M33 61.875C40.6581 61.875 48.0026 58.8328 53.4177 53.4177C58.8328 48.0026 61.875 40.6581 61.875 33C61.875 25.3419 58.8328 17.9974 53.4177 12.5823C48.0026 7.16718 40.6581 4.125 33 4.125C25.3419 4.125 17.9974 7.16718 12.5823 12.5823C7.16718 17.9974 4.125 25.3419 4.125 33C4.125 40.6581 7.16718 48.0026 12.5823 53.4177C17.9974 58.8328 25.3419 61.875 33 61.875ZM33 66C24.2479 66 15.8542 62.5232 9.66548 56.3345C3.47678 50.1458 0 41.7521 0 33C0 24.2479 3.47678 15.8542 9.66548 9.66548C15.8542 3.47678 24.2479 0 33 0C41.7521 0 50.1458 3.47678 56.3345 9.66548C62.5232 15.8542 66 24.2479 66 33C66 41.7521 62.5232 50.1458 56.3345 56.3345C50.1458 62.5232 41.7521 66 33 66Z" fill="black"/>
    </g>
    <defs>
        <clipPath id="clip0_226_504">
            <rect width="66" height="66" fill="white"/>
        </clipPath>
    </defs>
</svg>
