<svg  viewBox="0 0 27 27" fill="none" xmlns="http://www.w3.org/2000/svg">
<path d="M24.6334 23.3252L19.4666 18.3398L19.515 18.2791C20.9063 16.5563 21.6726 14.3873 21.6726 12.1727C21.6726 6.80121 17.3024 2.43066 11.9323 2.43066C6.56046 2.43066 2.18945 6.80121 2.18945 12.1727C2.18945 17.5441 6.56046 21.9142 11.9323 21.9142C14.286 21.9142 16.56 21.0586 18.3353 19.5072L18.3936 19.4563L23.548 24.386H23.5997L23.6005 24.4287C23.7309 24.5205 23.8778 24.5689 24.0378 24.5689C24.4644 24.5689 24.8105 24.2211 24.8105 23.7961C24.8105 23.6321 24.7515 23.4729 24.6334 23.3252ZM11.9323 20.3662C7.414 20.3662 3.73874 16.6909 3.73874 12.1727C3.73874 7.65486 7.414 3.98039 11.9323 3.98039C16.4492 3.98039 20.1245 7.65486 20.1245 12.1727C20.1245 16.6909 16.4492 20.3662 11.9323 20.3662Z" fill="black"/>
</svg>
